<svg id="Layer_1" height="512" viewBox="0 0 512 512" width="512" xmlns="http://www.w3.org/2000/svg" data-name="Layer 1"><path d="m172.87 27.55v58.45h-156.56v-56.45a2 2 0 0 1 2-2z" fill="#e48e66"/><path d="m495.69 29.55v53.79h-156.56v-55.79h154.56a2 2 0 0 1 2 2z" fill="#e48e66"/><path d="m496.97 372.28v104.01a19.994 19.994 0 0 1 -20 20h-137.84v-144.01h137.84a19.994 19.994 0 0 1 20 20z" fill="#e48e66"/><path d="m178 437.96v58.33h-140.42a20 20 0 0 1 -20-20v-104.01a20 20 0 0 1 20-20h140.42z" fill="#e48e66"/><path d="m339.13 83.34v61.11h-166.26v-58.45-58.45h166.26z" fill="#6fe3ff"/><path d="m177.33 261.49v10h-38a10 10 0 0 1 0-20h38z" fill="#6fe3ff"/><path d="m495.69 83.34v59.11a2 2 0 0 1 -2 2h-154.56v-61.11z" fill="#f8ec7d"/><path d="m339.13 439.29v57h-161.13v-144.01h161.13z" fill="#f8ec7d"/><path d="m318.45 246.49v42.54a20.007 20.007 0 0 1 -20 20h-73.99a20 20 0 0 1 -20-20v-42.54z" fill="#f8ec7d"/><path d="m172.87 86v58.45h-154.56a2 2 0 0 1 -2-2v-56.45z" fill="#f8ec7d"/><g fill="#63316d"><path d="m476.97 346.28h-134.077a5.988 5.988 0 0 0 -7.526 0h-152.383a6 6 0 0 0 -9.968 0h-135.436a26.03 26.03 0 0 0 -26 26v104.01a26.03 26.03 0 0 0 26 26h140.381.039.039 157.328a5.988 5.988 0 0 0 7.526 0h134.077a26.029 26.029 0 0 0 26-26v-104.01a26.029 26.029 0 0 0 -26-26zm-292.97 12h149.13v132.01h-149.13zm-160.42 118.01v-104.01a14.016 14.016 0 0 1 14-14h134.42v132.01h-134.42a14.015 14.015 0 0 1 -14-14zm467.39 0a14.015 14.015 0 0 1 -14 14h-131.84v-132.01h131.84a14.016 14.016 0 0 1 14 14z"/><path d="m18.31 150.45h475.38a8.009 8.009 0 0 0 8-8v-112.9a8.009 8.009 0 0 0 -8-8h-475.38a8.009 8.009 0 0 0 -8 8v112.9a8.009 8.009 0 0 0 8 8zm4-58.45h144.56v46.45h-144.56zm310.82 46.45h-154.26v-104.9h154.26zm12 0v-49.11h144.56v49.11zm144.56-61.11h-144.56v-43.79h144.56zm-322.82-43.79v46.45h-144.56v-46.45z"/><path d="m143.95 370.28h-84.04a6 6 0 1 0 0 12h84.04a6 6 0 1 0 0-12z"/><path d="m298.2 370.28h-84.04a6 6 0 1 0 0 12h84.04a6 6 0 1 0 0-12z"/><path d="m462.63 370.28h-84.04a6 6 0 1 0 0 12h84.04a6 6 0 0 0 0-12z"/><path d="m324.45 246.49a6 6 0 0 0 -6-6h-113.99a6 6 0 0 0 -6 6v9h-15.13v-4a6 6 0 0 0 -6-6h-38a16 16 0 0 0 -16 16 16.019 16.019 0 0 0 16 16h38a6 6 0 0 0 6-6v-4h15.13v21.54a26.029 26.029 0 0 0 26 26h73.99a26.029 26.029 0 0 0 26-26zm-153.12 19h-32a4 4 0 0 1 -4-4 4 4 0 0 1 4-4h32zm141.12 23.54a14.015 14.015 0 0 1 -14 14h-73.99a14.015 14.015 0 0 1 -14-14v-36.54h101.99z"/><path d="m226.53 293.24a6 6 0 0 0 6-6v-22.01a6 6 0 0 0 -12 0v22.01a6 6 0 0 0 6 6z"/><path d="m312.8 321.716a6 6 0 0 0 -10.556 0l-3.444 6.374a9.876 9.876 0 0 0 -.754 1.857 9.91 9.91 0 0 0 -.753-1.85l-3.45-6.38a6 6 0 0 0 -10.556 0l-3.447 6.374a9.849 9.849 0 0 0 -.754 1.857 9.788 9.788 0 0 0 -.753-1.85l-3.45-6.38a6 6 0 0 0 -10.556 0l-3.447 6.374a9.89 9.89 0 0 0 -.752 1.852 10.033 10.033 0 0 0 -.745-1.846l-3.45-6.38a6 6 0 0 0 -10.556 0l-3.445 6.37a9.848 9.848 0 0 0 -.76 1.872 9.968 9.968 0 0 0 -.749-1.863l-3.45-6.38a6 6 0 0 0 -10.556 0l-3.445 6.37a9.848 9.848 0 0 0 -.76 1.872 9.968 9.968 0 0 0 -.749-1.863l-3.45-6.38a6 6 0 0 0 -10.556 0l-3.447 6.374a9.93 9.93 0 0 0 -1.195 4.72 10.328 10.328 0 0 0 1.842 5.743q.161.248.343.479a9.052 9.052 0 0 0 .726.814 9.949 9.949 0 0 0 14.022-.014 9.2 9.2 0 0 0 .666-.741c.113-.138.2-.29.3-.432l.005-.007a9.9 9.9 0 0 0 1.5-2.991 12.2 12.2 0 0 0 1.4 2.892c.11.171.228.335.354.494a9.087 9.087 0 0 0 .7.785 9.93 9.93 0 0 0 14.036 0 9.352 9.352 0 0 0 .665-.74c.109-.134.192-.282.294-.42l.019-.026a9.87 9.87 0 0 0 1.492-2.985 12.242 12.242 0 0 0 1.4 2.892c.11.171.228.335.354.494a9.087 9.087 0 0 0 .7.785 9.93 9.93 0 0 0 14.036 0 9.352 9.352 0 0 0 .665-.74c.109-.134.192-.282.294-.42l.019-.026a9.884 9.884 0 0 0 1.488-2.972 12.088 12.088 0 0 0 1.424 2.911c.1.159.215.313.333.462a9.042 9.042 0 0 0 .7.785 9.93 9.93 0 0 0 14.024.012 7.964 7.964 0 0 0 .768-.866 9.911 9.911 0 0 0 1.708-3.31 12.132 12.132 0 0 0 1.426 2.917c.1.159.215.313.333.462a9.042 9.042 0 0 0 .7.785 9.93 9.93 0 0 0 14.024.012 8.748 8.748 0 0 0 .686-.764c.1-.125.177-.262.272-.391l.039-.055a9.925 9.925 0 0 0 1.479-2.967 12.083 12.083 0 0 0 1.426 2.918c.1.159.215.313.333.462a9.042 9.042 0 0 0 .7.785 9.949 9.949 0 0 0 14.024.012 9.014 9.014 0 0 0 .691-.77c.1-.127.182-.268.278-.4l.022-.033a9.842 9.842 0 0 0 .726-10.546z"/><path d="m301.15 230.33v-20a6 6 0 0 0 -12 0v20a6 6 0 1 0 12 0z"/><path d="m281.15 220.33v-10a6 6 0 0 0 -12 0v10a6 6 0 1 0 12 0z"/><path d="m261.15 230.33v-20a6 6 0 1 0 -12 0v20a6 6 0 1 0 12 0z"/><path d="m241.15 220.33v-10a6 6 0 0 0 -12 0v10a6 6 0 0 0 12 0z"/></g></svg>