<svg height="472pt" viewBox="-4 0 472 472.02314" width="472pt" xmlns="http://www.w3.org/2000/svg"><path d="m272.011719 472.015625c-2.59375.113281-5.078125-1.039063-6.667969-3.089844s-2.085938-4.746093-1.332031-7.230469l24-80c1.28125-4.242187 5.757812-6.640624 10-5.359374 4.242187 1.28125 6.640625 5.757812 5.359375 10l-24 80c-.988282 3.269531-3.945313 5.550781-7.359375 5.679687zm0 0" fill="#e59730"/><path d="m448.011719 472.015625c-3.652344.15625-6.945313-2.183594-8-5.679687l-24-80c-1.28125-4.417969 1.261719-9.039063 5.679687-10.320313 4.417969-1.28125 9.039063 1.261719 10.320313 5.679687l24 80c.753906 2.484376.257812 5.179688-1.332031 7.230469-1.589844 2.050781-4.074219 3.203125-6.667969 3.089844zm0 0" fill="#e59730"/><path d="m296.011719 344.015625h-16c-13.253907 0-24-10.746094-24-24s10.746093-24 24-24h16c4.417969 0 8 3.582031 8 8s-3.582031 8-8 8h-16c-4.417969 0-8 3.582031-8 8s3.582031 8 8 8h16c4.417969 0 8 3.582031 8 8s-3.582031 8-8 8zm0 0" fill="#4891d3"/><path d="m272.011719 64.015625c-2.378907.003906-4.636719-1.050781-6.160157-2.878906l-33.839843-40.640625-33.839844 40.640625c-2.828125 3.402343-7.878906 3.867187-11.28125 1.039062s-3.867187-7.878906-1.039063-11.28125l40-48c1.519532-1.832031 3.777344-2.894531 6.160157-2.894531 2.382812 0 4.640625 1.0625 6.160156 2.894531l40 48c1.359375 1.632813 2.015625 3.742188 1.820313 5.855469-.195313 2.117188-1.222657 4.070312-2.859376 5.425781-1.441406 1.191407-3.253906 1.84375-5.121093 1.839844zm0 0" fill="#fcbc04"/><path d="m272.011719 352.015625h176c8.835937 0 16 7.164063 16 16s-7.164063 16-16 16h-176c-8.835938 0-16-7.164063-16-16s7.164062-16 16-16zm0 0" fill="#fcbc04"/><path d="m32.011719 464.015625h-16l16-80h32zm0 0" fill="#d0d8da"/><path d="m160.011719 464.015625h16l-16-80h-32zm0 0" fill="#d0d8da"/><path d="m166.652344 336.015625h-22.640625v-32c0-17.671875-14.328125-32-32-32h-48c-8.835938 0-16-7.164063-16-16v-22.640625c.222656-13.09375-9.679688-24.148438-22.71875-25.359375-6.585938-.351563-13.023438 2.019531-17.804688 6.558594-4.78125 4.542969-7.48437475 10.847656-7.4765622 17.441406v120c0 17.671875 14.3281252 32 32.0000002 32h136c6.59375.007813 12.898437-2.695313 17.441406-7.476563 4.539063-4.78125 6.910156-11.21875 6.558594-17.804687-1.210938-13.039063-12.265625-22.941406-25.359375-22.71875zm0 0" fill="#57b7eb"/><path d="m164.8125 408.015625-4.800781-24h-32l9.601562 24zm0 0" fill="#93999a"/><path d="m54.410156 408.015625 9.601563-24h-32l-4.800781 24zm0 0" fill="#93999a"/><path d="m120.011719 328.015625c0-17.671875-14.328125-32-32-32h-32c-17.671875 0-32-14.328125-32-32v-56c-13.253907 0-24.0000002 10.746094-24.0000002 24v120c0 17.671875 14.3281252 32 32.0000002 32h136c13.253906 0 24-10.746094 24-24h-40c-17.671875 0-32-14.328125-32-32zm0 0" fill="#4891d3"/><path d="m288.011719 296.015625h40v56h-40zm0 0" fill="#4891d3"/><path d="m160.011719 48.015625h144v144h-144zm0 0" fill="#57b7eb"/><path d="m184.011719 104.015625v-56h-24v144h144v-24h-56c-35.347657 0-64-28.652344-64-64zm0 0" fill="#4891d3"/><path d="m248.011719 96.015625c0 8.835937-7.164063 16-16 16-8.835938 0-16-7.164063-16-16s7.164062-16 16-16c8.835937 0 16 7.164063 16 16zm0 0" fill="#f9e109"/><path d="m251.292969 148.734375c-10.652344 10.640625-27.910157 10.640625-38.5625 0-7.730469-7.699219-19.289063-10.085937-29.4375-6.078125l-23.28125 9.359375v40h144v-40l-23.28125-9.359375c-10.148438-4.007812-21.707031-1.621094-29.4375 6.078125zm0 0" fill="#c4f236"/><path d="m195.773438 140.894531c-4.242188-.40625-8.519532.195313-12.480469 1.761719l-23.28125 9.359375v40h144v-24h-56c-20.785157-.019531-40.261719-10.132813-52.238281-27.121094zm0 0" fill="#a1d51c"/><path d="m440.011719 312.015625c-.039063-11.390625-6.132813-21.902344-16-27.601563v-20.398437h-32v20.398437c-8.203125 4.8125-13.84375 13.023438-15.390625 22.40625-1.546875 9.382813 1.164062 18.96875 7.390625 26.15625v19.039063h48v-19.039063c5.109375-5.792968 7.949219-13.238281 8-20.960937zm0 0" fill="#d0d8da"/><g fill="#c4f236"><path d="m432.011719 232.015625h24c0 17.671875-14.328125 32-32 32h-16v-8c0-13.253906 10.746093-24 24-24zm0 0"/><path d="m408.011719 264.015625h-16c-17.671875 0-32-14.328125-32-32h24c13.253906 0 24 10.746094 24 24zm0 0"/><path d="m405.640625 244.300781-11.3125-11.3125c-12.496094-12.496093-12.496094-32.757812 0-45.253906l16.96875 16.96875c9.375 9.371094 9.375 24.570313 0 33.941406zm0 0"/></g><path d="m400.011719 332.976562c-6.226563-7.1875-8.9375-16.773437-7.390625-26.15625 1.546875-9.382812 7.1875-17.59375 15.390625-22.40625v-4.398437h16v-16h-32v20.398437c-8.203125 4.8125-13.84375 13.023438-15.390625 22.40625-1.546875 9.382813 1.164062 18.96875 7.390625 26.15625v19.039063h35.039062c-10.496093-.042969-18.996093-8.542969-19.039062-19.039063zm0 0" fill="#93999a"/><path d="m424.011719 248.015625h-14.558594c-.933594 2.566406-1.417969 5.269531-1.441406 8v8h16c17.671875 0 32-14.328125 32-32h-4.398438c-5.699219 9.867187-16.210937 15.960937-27.601562 16zm0 0" fill="#a1d51c"/><path d="m392.011719 248.015625c-11.390625-.039063-21.902344-6.132813-27.601563-16h-4.398437c0 17.671875 14.328125 32 32 32h16v-8c-.023438-2.730469-.507813-5.433594-1.441407-8zm0 0" fill="#a1d51c"/><path d="m413.691406 228.335938-11.359375-11.359376c-7.371093-7.414062-10.65625-17.957031-8.800781-28.242187-11.613281 12.585937-11.261719 32.085937.800781 44.242187l11.359375 11.359376 5.601563-5.679688c3.917969-3.9375 6.347656-9.113281 6.878906-14.640625zm0 0" fill="#a1d51c"/><path d="m304.011719 296.015625h24v40c-13.253907 0-24-10.746094-24-24zm0 0" fill="#57b7eb"/><path d="m288.011719 352.015625h160c8.835937 0 16 7.164063 16 16h-160c-8.835938 0-16-7.164063-16-16zm0 0" fill="#f9e109"/></svg>