<svg height="511pt" viewBox="-54 1 511 511.99904" width="511pt" xmlns="http://www.w3.org/2000/svg"><path d="m10.503906 63.980469v373.859375h245.90625v-236.695313l-109.957031-191.144531-41.824219 31.367188c-19.570312 14.675781-43.371094 22.613281-67.835937 22.613281zm0 0" fill="#36d28f"/><path d="m155.121094 5.015625c-1.429688-2.484375-3.851563-4.234375-6.65625-4.8125-2.804688-.574219-5.722656.078125-8.011719 1.796875l-41.824219 31.367188c-17.722656 13.292968-39.683594 20.613281-61.835937 20.613281h-26.289063c-5.523437 0-10 4.476562-10 10v115.457031c0 5.523438 4.476563 10 10 10 5.523438 0 10-4.476562 10-10v-105.457031h16.289063c26.453125 0 52.671875-8.742188 73.835937-24.613281l32.785156-24.589844 102.996094 179.039062v224.023438h-225.90625v-168.589844c0-5.523438-4.476562-10-10-10-5.523437 0-10 4.476562-10 10v178.589844c0 5.519531 4.476563 10 10 10h245.90625c5.523438 0 10-4.480469 10-10v-236.695313c0-1.75-.457031-3.472656-1.332031-4.988281zm0 0"/><path d="m10.5 229.257812c2.640625 0 5.210938-1.058593 7.070312-2.929687 1.867188-1.859375 2.9375-4.429687 2.9375-7.070313 0-2.628906-1.070312-5.207031-2.9375-7.070312-1.859374-1.859375-4.429687-2.917969-7.070312-2.917969-2.628906 0-5.210938 1.058594-7.070312 2.917969-1.859376 1.863281-2.929688 4.441406-2.929688 7.070312 0 2.640626 1.070312 5.210938 2.929688 7.070313 1.859374 1.871094 4.441406 2.929687 7.070312 2.929687zm0 0"/><path d="m261.410156 480.15625-22.828125-13.179688c-4.78125-2.757812-10.898437-1.121093-13.660156 3.660157-1.492187 2.585937-1.6875 5.558593-.808594 8.179687h-181.3125c.882813-2.621094.683594-5.59375-.808593-8.179687-2.761719-4.78125-8.875-6.421875-13.660157-3.660157l-22.828125 13.179688c-3.09375 1.789062-5 5.089844-5 8.660156 0 3.574219 1.90625 6.875 5 8.660156l22.828125 13.179688c1.574219.910156 3.292969 1.34375 4.992188 1.34375 3.457031 0 6.816406-1.792969 8.667969-5 1.492187-2.585938 1.691406-5.558594.808593-8.183594h181.3125c-.878906 2.625-.683593 5.597656.808594 8.183594 1.851563 3.207031 5.214844 5 8.667969 5 1.699218 0 3.417968-.433594 4.992187-1.34375l22.828125-13.179688c3.09375-1.785156 5-5.085937 5-8.660156 0-3.570312-1.90625-6.871094-5-8.660156zm0 0"/><path d="m381.179688 307.550781c-2.640626 0-5.210938 1.066407-7.082032 2.929688-1.859375 1.859375-2.917968 4.4375-2.917968 7.066406 0 2.632813 1.058593 5.210937 2.917968 7.070313 1.871094 1.863281 4.441406 2.929687 7.082032 2.929687 2.628906 0 5.207031-1.066406 7.066406-2.929687 1.863281-1.859376 2.933594-4.4375 2.933594-7.070313 0-2.628906-1.070313-5.207031-2.933594-7.066406-1.859375-1.863281-4.4375-2.929688-7.066406-2.929688zm0 0"/><path d="m399.355469 416.34375c-2.585938-1.492188-5.558594-1.6875-8.179688-.808594v-58c0-5.523437-4.480469-10-10-10-5.523437 0-10 4.476563-10 10v58c-2.625-.878906-5.597656-.683594-8.183593.808594-4.78125 2.761719-6.421876 8.878906-3.65625 13.660156l13.179687 22.828125c1.785156 3.09375 5.085937 5 8.660156 5 3.570313 0 6.871094-1.90625 8.660157-5l13.179687-22.828125c2.761719-4.78125 1.121094-10.898437-3.660156-13.660156zm0 0"/><path d="m362.992188 41.488281c2.585937 1.492188 5.558593 1.691407 8.183593.8125v235.265625c0 5.523438 4.476563 10 10 10 5.519531 0 10-4.476562 10-10v-235.277344c1.023438.34375 2.097657.539063 3.1875.539063 1.695313 0 3.414063-.429687 4.992188-1.339844 4.78125-2.761719 6.421875-8.875 3.660156-13.660156l-13.179687-22.828125c-1.789063-3.09375-5.089844-5-8.660157-5-3.574219 0-6.875 1.90625-8.660156 5l-13.179687 22.828125c-2.765626 4.78125-1.125 10.898437 3.65625 13.660156zm0 0"/><path d="m196.109375 349.074219c1.953125 1.953125 4.511719 2.925781 7.074219 2.925781 2.558594 0 5.117187-.976562 7.070312-2.925781l17.695313-17.699219c3.90625-3.90625 3.90625-10.238281 0-14.144531-3.902344-3.902344-10.234375-3.902344-14.140625 0l-10.628906 10.628906-10.625-10.628906c-3.90625-3.902344-10.238282-3.902344-14.144532 0-3.90625 3.90625-3.90625 10.238281 0 14.144531zm0 0"/><path d="m126.386719 349.074219c1.953125 1.953125 4.511719 2.925781 7.070312 2.925781 2.558594 0 5.117188-.976562 7.070313-2.925781l17.699218-17.699219c3.90625-3.90625 3.90625-10.238281 0-14.140625-3.90625-3.90625-10.238281-3.90625-14.140624 0l-10.628907 10.625-10.628906-10.625c-3.902344-3.90625-10.234375-3.90625-14.140625 0-3.90625 3.902344-3.90625 10.234375 0 14.140625zm0 0"/><path d="m56.664062 349.074219c1.953126 1.953125 4.511719 2.925781 7.070313 2.925781s5.117187-.972656 7.070313-2.925781l17.699218-17.699219c3.902344-3.90625 3.902344-10.238281 0-14.144531-3.90625-3.902344-10.238281-3.902344-14.144531 0l-10.628906 10.628906-10.625-10.628906c-3.90625-3.902344-10.238281-3.902344-14.144531 0-3.902344 3.90625-3.902344 10.238281 0 14.144531zm0 0"/><path d="m178.410156 380.824219 17.699219 17.699219c1.953125 1.953124 4.511719 2.929687 7.074219 2.929687 2.558594 0 5.117187-.976563 7.070312-2.929687l17.695313-17.699219c3.90625-3.902344 3.90625-10.234375 0-14.140625-3.902344-3.90625-10.234375-3.90625-14.140625 0l-10.628906 10.625-10.625-10.625c-3.90625-3.90625-10.238282-3.90625-14.144532 0-3.90625 3.902344-3.902344 10.238281 0 14.140625zm0 0"/><path d="m108.6875 380.824219 17.699219 17.699219c1.953125 1.953124 4.511719 2.929687 7.070312 2.929687 2.558594 0 5.117188-.976563 7.070313-2.929687l17.699218-17.699219c3.90625-3.902344 3.90625-10.234375 0-14.140625s-10.238281-3.90625-14.140624 0l-10.628907 10.628906-10.628906-10.628906c-3.902344-3.90625-10.234375-3.90625-14.140625 0s-3.90625 10.238281 0 14.140625zm0 0"/><path d="m38.964844 380.824219 17.695312 17.699219c1.953125 1.953124 4.511719 2.929687 7.070313 2.929687 2.5625 0 5.121093-.976563 7.074219-2.929687l17.695312-17.699219c3.90625-3.902344 3.90625-10.234375 0-14.140625-3.902344-3.90625-10.234375-3.90625-14.140625 0l-10.628906 10.625-10.625-10.625c-3.90625-3.90625-10.238281-3.90625-14.144531 0-3.902344 3.90625-3.902344 10.238281.003906 14.140625zm0 0"/></svg>