<svg id="Capa_1" enable-background="new 0 0 512 512" height="512" viewBox="0 0 512 512" width="512" xmlns="http://www.w3.org/2000/svg"><path d="m392.495 189.041h-13.824v58.639h13.824c10.741 0 19.448-8.707 19.448-19.448v-19.742c0-10.741-8.707-19.449-19.448-19.449z" fill="#383c43"/><path d="m331.759 67.802v-23.665c0-20.234-16.403-36.637-36.637-36.637h-111.516c-20.234 0-36.637 16.403-36.637 36.637v23.665c0 38.194-10.208 54.691-24.887 76.387h234.564c-14.679-21.696-24.887-38.193-24.887-76.387z" fill="#f7ef87"/><path d="m224.668 144.189v-27.497c-6.312-22.396-14.806-69.684-5.324-109.193h-35.738c-20.234 0-36.637 16.403-36.637 36.637v23.665c0 38.194-10.208 54.691-24.887 76.387h102.586z" fill="#efd176"/><path d="m331.759 444.198v23.665c0 20.234-16.403 36.637-36.637 36.637h-111.516c-20.234 0-36.637-16.403-36.637-36.637v-23.665c0-38.194-10.208-54.691-24.887-76.388h234.564c-14.679 21.697-24.887 38.194-24.887 76.388z" fill="#f7ef87"/><path d="m257.287 395.307v-27.497h-135.205c14.679 21.697 24.887 38.194 24.887 76.388v23.665c0 20.234 16.403 36.637 36.637 36.637h60.114c-13.517-51.434-11.675-94.827 13.567-109.193z" fill="#efd176"/><path d="m170.138 395.307c-38.642 0-70.081-31.438-70.081-70.081v-138.453c0-38.643 31.438-70.081 70.081-70.081h138.452c38.642 0 70.081 31.438 70.081 70.081v138.453c0 38.643-31.439 70.081-70.081 70.081z" fill="#4e5660"/><path d="m170.138 116.693c-38.642 0-70.081 31.438-70.081 70.081v138.453c0 38.643 31.438 70.081 70.081 70.081h87.149c-54.205-52.715-55.057-187.019-32.618-278.615z" fill="#383c43"/><path d="m308.59 150.729h-138.452c-19.907 0-36.045 16.138-36.045 36.045v138.453c0 19.907 16.138 36.045 36.045 36.045h138.452c19.907 0 36.045-16.138 36.045-36.045v-138.453c0-19.907-16.138-36.045-36.045-36.045z" fill="#a3defe"/><path d="m233.795 361.271c-25.981-54.745-27.758-139.684-16.047-210.542h-47.61c-19.907 0-36.045 16.138-36.045 36.045v138.453c0 19.907 16.138 36.045 36.045 36.045h63.657z" fill="#7acefa"/><path d="m239.364 332.033c-41.925 0-76.033-34.108-76.033-76.033s34.108-76.033 76.033-76.033c10.362 0 20.411 2.05 29.867 6.093 3.809 1.628 5.576 6.036 3.948 9.844-1.629 3.808-6.036 5.575-9.845 3.948-7.582-3.242-15.646-4.885-23.971-4.885-33.654 0-61.033 27.379-61.033 61.033s27.379 61.033 61.033 61.033 61.033-27.379 61.033-61.033c0-11.361-3.141-22.444-9.083-32.052-2.179-3.523-1.089-8.145 2.433-10.323 3.524-2.178 8.146-1.09 10.324 2.434 7.409 11.98 11.325 25.791 11.325 39.942.002 41.924-34.106 76.032-76.031 76.032z" fill="#6a96d7"/><path d="m259.973 224.785-23.715 23.715h-15.217c-4.143 0-7.5 3.358-7.5 7.5s3.357 7.5 7.5 7.5h18.323c1.989 0 3.896-.79 5.304-2.197l25.912-25.912c2.929-2.929 2.929-7.678 0-10.606-2.93-2.929-7.678-2.929-10.607 0zm132.522-43.243h-6.52c-1.652-24.668-14.87-46.216-34.281-59.237-7.499-13.526-12.434-28.294-12.434-54.503v-11.325c0-4.142-3.357-7.5-7.5-7.5s-7.5 3.358-7.5 7.5v11.325c0 17.532 2.008 31.58 6.603 44.664-7.059-2.12-14.531-3.273-22.271-3.273h-138.454c-7.74 0-15.212 1.154-22.271 3.273 4.594-13.084 6.602-27.132 6.602-44.664v-23.665c0-16.066 13.071-29.137 29.137-29.137h111.516c9.176 0 17.632 4.194 23.2 11.507 2.508 3.295 7.216 3.933 10.51 1.424 3.296-2.509 3.934-7.215 1.424-10.511-8.429-11.071-21.234-17.42-35.134-17.42h-111.516c-24.338 0-44.138 19.8-44.138 44.137v23.665c0 26.209-4.934 40.977-12.433 54.502-20.775 13.935-34.479 37.63-34.479 64.47v138.453c0 26.84 13.704 50.535 34.479 64.47 7.499 13.525 12.433 28.293 12.433 54.502v23.665c0 13.418 5.997 25.949 16.454 34.378 1.387 1.118 3.05 1.662 4.702 1.662 2.19 0 4.362-.956 5.844-2.793 2.6-3.225 2.093-7.946-1.132-10.546-6.907-5.568-10.868-13.842-10.868-22.701v-23.665c0-17.532-2.008-31.581-6.602-44.665 7.059 2.12 14.531 3.273 22.271 3.273h138.453c7.74 0 15.212-1.154 22.27-3.273-4.594 13.085-6.602 27.133-6.602 44.665v23.665c0 16.066-13.07 29.137-29.137 29.137h-98.851c-4.143 0-7.5 3.358-7.5 7.5s3.357 7.5 7.5 7.5h98.852c24.337 0 44.137-19.8 44.137-44.137v-23.665c0-26.208 4.934-40.976 12.434-54.502 20.774-13.935 34.478-37.63 34.478-64.469v-70.046h6.324c14.859 0 26.948-12.089 26.948-26.948v-19.744c0-14.86-12.089-26.948-26.948-26.948zm-21.324 143.685c0 22.151-11.579 41.637-28.991 52.761-.061.037-.12.077-.18.115-9.675 6.135-21.13 9.704-33.409 9.704h-138.453c-12.283 0-23.742-3.572-33.419-9.71-.056-.036-.11-.073-.167-.107-17.415-11.124-28.995-30.611-28.995-52.763v-138.454c0-34.507 28.074-62.581 62.581-62.581h138.453c34.507 0 62.58 28.074 62.58 62.581zm33.272-96.994c0 6.588-5.36 11.948-11.948 11.948h-6.324v-43.639h6.324c6.588 0 11.948 5.36 11.948 11.948zm-95.853-85.004h-138.452c-24.011 0-43.545 19.534-43.545 43.544v138.453c0 24.011 19.534 43.545 43.545 43.545h138.452c24.011 0 43.545-19.534 43.545-43.545v-138.453c0-24.01-19.534-43.544-43.545-43.544zm28.545 181.997c0 15.74-12.806 28.545-28.545 28.545h-138.452c-15.739 0-28.545-12.805-28.545-28.545v-138.453c0-15.739 12.806-28.544 28.545-28.544h138.452c15.739 0 28.545 12.805 28.545 28.544z"/></svg>