<?xml version="1.0" encoding="iso-8859-1"?>
<!-- Generator: Adobe Illustrator 19.0.0, SVG Export Plug-In . SVG Version: 6.00 Build 0)  -->
<svg version="1.1" id="Capa_1" xmlns="http://www.w3.org/2000/svg" xmlns:xlink="http://www.w3.org/1999/xlink" x="0px" y="0px"
	 viewBox="0 0 512 512" style="enable-background:new 0 0 512 512;" xml:space="preserve">
<g>
	<g>
		<path d="M448.8,0H63.2c-8.284,0-15,6.716-15,15v482c0,8.284,6.716,15,15,15h385.6c8.284,0,15-6.716,15-15V15
			C463.8,6.716,457.084,0,448.8,0z M433.8,482H78.2V30h355.6V482z"/>
	</g>
</g>
<g>
	<g>
		<path d="M299.879,91.619c-7.277-7.277-16.952-11.285-27.243-11.285c-5.853,0-11.51,1.298-16.638,3.756
			c-5.128-2.459-10.783-3.756-16.638-3.756c-10.29,0-19.965,4.007-27.246,11.285c-15.021,15.023-15.021,39.467,0.001,54.488
			l33.277,33.275c2.929,2.929,6.768,4.394,10.606,4.394c3.839,0,7.678-1.465,10.606-4.394l33.276-33.275
			C314.901,131.084,314.901,106.64,299.879,91.619z M278.666,124.894l-22.669,22.669l-22.669-22.669
			c-3.324-3.326-3.324-8.738-0.001-12.061c1.613-1.612,3.756-2.5,6.034-2.5c2.277,0,4.419,0.888,6.03,2.498
			c5.856,5.856,15.353,5.858,21.211,0.002c1.613-1.612,3.756-2.5,6.034-2.5c2.277,0,4.419,0.888,6.03,2.498
			C281.991,116.156,281.991,121.568,278.666,124.894z"/>
	</g>
</g>
<g>
	<g>
		<path d="M154.139,406.06c-2.79-2.79-6.66-4.39-10.609-4.39c-3.941,0-7.811,1.6-10.601,4.39c-2.8,2.79-4.399,6.66-4.399,10.601
			c0,3.949,1.6,7.819,4.399,10.609c2.791,2.79,6.661,4.4,10.601,4.4c3.949,0,7.819-1.61,10.609-4.4
			c2.79-2.79,4.391-6.66,4.391-10.609C158.53,412.721,156.929,408.85,154.139,406.06z"/>
	</g>
</g>
<g>
	<g>
		<path d="M154.139,325.72c-2.79-2.79-6.66-4.39-10.609-4.39c-3.941,0-7.811,1.6-10.601,4.39c-2.8,2.8-4.399,6.66-4.399,10.61
			c0,3.95,1.6,7.819,4.399,10.609c2.791,2.79,6.661,4.391,10.601,4.391c3.949,0,7.819-1.601,10.609-4.391
			c2.79-2.79,4.391-6.659,4.391-10.609C158.53,332.389,156.929,328.519,154.139,325.72z"/>
	</g>
</g>
<g>
	<g>
		<path d="M154.139,245.39c-2.79-2.79-6.66-4.39-10.609-4.39c-3.941,0-7.811,1.6-10.601,4.39c-2.8,2.8-4.399,6.66-4.399,10.61
			s1.6,7.81,4.399,10.609c2.791,2.79,6.651,4.391,10.601,4.391c3.949,0,7.819-1.601,10.609-4.391c2.79-2.8,4.391-6.659,4.391-10.609
			S156.929,248.189,154.139,245.39z"/>
	</g>
</g>
<g>
	<g>
		<path d="M368.466,401.666H239.933c-8.284,0-15,6.716-15,15s6.716,15,15,15h128.533c8.284,0,15-6.716,15-15
			S376.75,401.666,368.466,401.666z"/>
	</g>
</g>
<g>
	<g>
		<path d="M368.466,321.332H239.933c-8.284,0-15,6.716-15,15s6.716,15,15,15h128.533c8.284,0,15-6.716,15-15
			S376.75,321.332,368.466,321.332z"/>
	</g>
</g>
<g>
	<g>
		<path d="M368.466,241H239.933c-8.285,0-15,6.716-15,15s6.716,15,15,15h128.533c8.284,0,15-6.716,15-15S376.75,241,368.466,241z"/>
	</g>
</g>
<g>
</g>
<g>
</g>
<g>
</g>
<g>
</g>
<g>
</g>
<g>
</g>
<g>
</g>
<g>
</g>
<g>
</g>
<g>
</g>
<g>
</g>
<g>
</g>
<g>
</g>
<g>
</g>
<g>
</g>
</svg>
